<svg width="14" height="14" viewBox="0 0 14 14" fill="none" xmlns="http://www.w3.org/2000/svg">
<path d="M12.8009 3.65014C12.3622 3.84517 11.89 3.97672 11.3945 4.03559C11.9004 3.73275 12.2883 3.25306 12.4712 2.68081C11.998 2.9616 11.4743 3.16535 10.9163 3.27535C10.4698 2.79952 9.83335 2.50201 9.12906 2.50201C7.77695 2.50201 6.68067 3.59829 6.68067 4.95065C6.68067 5.14229 6.70223 5.32908 6.74414 5.50861C4.70906 5.40637 2.90462 4.43171 1.6969 2.95022C1.48612 3.31169 1.36547 3.73227 1.36547 4.18144C1.36547 5.03085 1.79768 5.78044 2.45472 6.21943C2.05352 6.20659 1.67582 6.09636 1.3456 5.91296C1.34536 5.92313 1.34536 5.93355 1.34536 5.94397C1.34536 7.13013 2.18944 8.11957 3.3097 8.34488C3.10425 8.40061 2.8879 8.43065 2.66453 8.43065C2.50657 8.43065 2.35321 8.41538 2.20373 8.38655C2.51553 9.35927 3.41969 10.0674 4.49102 10.0871C3.653 10.7439 2.59742 11.1354 1.45002 11.1354C1.25257 11.1354 1.05754 11.1237 0.865906 11.101C1.94983 11.796 3.23678 12.2011 4.61942 12.2011C9.12349 12.2011 11.5862 8.47014 11.5862 5.23436C11.5862 5.12824 11.584 5.02237 11.5794 4.91722C12.0576 4.57271 12.4729 4.14122 12.8009 3.65014Z" fill="white"/>
</svg>
