<svg width="11" height="11" viewBox="0 0 11 11" fill="none" xmlns="http://www.w3.org/2000/svg">
<g clip-path="url(#clip0_1_90)">
<path d="M2.49395 3.27417H0.138306V10.0681H2.49395V3.27417Z" fill="#1D1A1A"/>
<path d="M1.33333 0.000183105C0.528355 0.000183105 -6.10352e-05 0.50712 -6.10352e-05 1.17514C-6.10352e-05 1.82895 0.51354 2.3501 1.30369 2.3501H1.31851C2.1383 2.3501 2.6519 1.82895 2.6519 1.17514C2.63214 0.50712 2.1383 0.000183105 1.33333 0.000183105Z" fill="#1D1A1A"/>
<path d="M8.2768 3.11758C7.02737 3.11758 6.46932 3.77613 6.15326 4.24043V4.26411H6.13844C6.14338 4.25938 6.14832 4.2499 6.15326 4.24043V3.27393H3.79761C3.82724 3.91352 3.79761 10.0678 3.79761 10.0678H6.15326V6.27291C6.15326 6.06919 6.16807 5.86547 6.23227 5.72334C6.40512 5.31589 6.79032 4.89897 7.4422 4.89897C8.29655 4.89897 8.63731 5.52435 8.63731 6.434V10.0678H10.993V6.17342C10.988 4.08882 9.82254 3.11758 8.2768 3.11758Z" fill="#1D1A1A"/>
</g>
<defs>
<clipPath id="clip0_1_90">
<rect width="10.9881" height="10.0724" fill="white"/>
</clipPath>
</defs>
</svg>
