<svg width="19" height="17" viewBox="0 0 19 17" fill="none" xmlns="http://www.w3.org/2000/svg">
<path d="M9.88375 6.59888C9.93141 6.82773 9.96583 7.05659 9.96583 7.35386C9.96583 9.94205 8.01714 11.7776 5.08353 11.7776C2.27435 11.7776 0 9.75095 0 7.24769C0 4.74444 2.27435 2.71777 5.08353 2.71777C6.45767 2.71777 7.60146 3.16369 8.48843 3.90452L7.10899 5.08419C6.73567 4.76332 6.0764 4.38582 5.08353 4.38582C3.3493 4.38582 1.93545 5.66458 1.93545 7.24769C1.93545 8.83081 3.3493 10.1096 5.08353 10.1096C7.09575 10.1096 7.85034 8.81901 7.96948 8.15604H5.08353V6.59888H9.88375Z" fill="#1D1A1A"/>
<path d="M16.4059 8.70631H14.2802V10.8846H13.1648V8.70631H11.0392V7.6961H13.1648V5.51784H14.2802V7.6961H16.4059V8.70631Z" fill="#1D1A1A"/>
</svg>
