<svg width="29" height="29" viewBox="0 0 29 29" fill="none" xmlns="http://www.w3.org/2000/svg">
<path d="M14.5 1.20834C13.5386 1.20834 12.6166 1.59026 11.9367 2.27008C11.2569 2.9499 10.875 3.87193 10.875 4.83334V14.5C10.875 15.4614 11.2569 16.3835 11.9367 17.0633C12.6166 17.7431 13.5386 18.125 14.5 18.125C15.4614 18.125 16.3834 17.7431 17.0633 17.0633C17.7431 16.3835 18.125 15.4614 18.125 14.5V4.83334C18.125 3.87193 17.7431 2.9499 17.0633 2.27008C16.3834 1.59026 15.4614 1.20834 14.5 1.20834V1.20834Z" stroke="#232323" stroke-width="2.41667" stroke-linecap="round" stroke-linejoin="round"/>
<path d="M22.9583 12.0833V14.5C22.9583 16.7433 22.0672 18.8947 20.4809 20.481C18.8947 22.0672 16.7433 22.9583 14.5 22.9583C12.2567 22.9583 10.1053 22.0672 8.51904 20.481C6.9328 18.8947 6.04166 16.7433 6.04166 14.5V12.0833" stroke="#232323" stroke-width="2.41667" stroke-linecap="round" stroke-linejoin="round"/>
<path d="M14.5 22.9583V27.7917" stroke="#232323" stroke-width="2.41667" stroke-linecap="round" stroke-linejoin="round"/>
<path d="M9.66666 27.7917H19.3333" stroke="#232323" stroke-width="2.41667" stroke-linecap="round" stroke-linejoin="round"/>
</svg>
